<svg version="1.1" xmlns="http://www.w3.org/2000/svg" viewBox="0 0 479.23413463692987 448.9563970001992" width="1437.7024039107896" height="1346.8691910005978">
  <!-- svg-source:excalidraw -->
  
  <defs>
    <style>
      @font-face {
        font-family: "Virgil";
        src: url("https://excalidraw.com/Virgil.woff2");
      }
      @font-face {
        font-family: "Cascadia";
        src: url("https://excalidraw.com/Cascadia.woff2");
      }
    </style>
  </defs>
  <g stroke-linecap="round"><g transform="translate(327.3274901023444 7.3626769532422145) rotate(302.6847942516087 0.33728592367594956 16.817124160277814)"><path d="M-1.38 -0.51 C-0.95 5.79, -0.67 30.54, -0.09 36.89 M3.07 -3.25 C3.36 2.36, -2.12 26.85, -2.39 32.99" stroke="#e67700" stroke-width="1" fill="none"></path></g></g><g stroke-linecap="round"><g transform="translate(359.86231972874043 7.342515712619047) rotate(58.47663174358581 -2.515600510568788 17.66218804398315)"><path d="M-0.51 -0.12 C-0.88 6.44, -2.82 32.39, -3.14 37.98 M-4.23 -2.66 C-4.7 3.26, -4.52 27.79, -4.27 34.09" stroke="#e67700" stroke-width="1" fill="none"></path></g></g><g stroke-linecap="round"><g transform="translate(340.8449238780885 35.58971386923076) rotate(358.2800168678543 -1.316497262391465 30.274017402380707)"><path d="M0.13 -0.88 C0.54 9.39, 0.88 50.92, 0.3 61.8 M-3.24 -3.82 C-2.76 6.74, -0.02 52.42, -0.42 64.37" stroke="#e67700" stroke-width="1" fill="none"></path></g></g><g stroke-linecap="round"><g transform="translate(231.9183171025503 30.10274572332463) rotate(358.2800168678543 -1.1675815745443288 31.509849035739876)"><path d="M1.69 -1.65 C1.49 9.01, -1.19 53.72, -2.04 64.67 M-0.84 3.62 C-1.29 13.35, -3.22 49.55, -4.02 60.16" stroke="#e67700" stroke-width="1" fill="none"></path></g></g><g stroke-linecap="round"><g transform="translate(259.770723084153 81.21484515814689) rotate(302.6847942516087 -2.8070818873494545 33.39136054202916)"><path d="M0.46 0.92 C-0.38 11.87, -3.06 53.37, -3.37 64.04 M-2.73 -1.05 C-4.17 10.56, -6.1 57.64, -6.08 67.83" stroke="#e67700" stroke-width="1" fill="none"></path></g></g><g stroke-linecap="round"><g transform="translate(312.2355143838639 82.10550533095522) rotate(58.47663174358581 -1.6834545990079732 30.523252423629174)"><path d="M0.92 -0.87 C0.83 9.86, -1.84 53.89, -2.21 64.86 M-2.02 -3.81 C-2.31 6.02, -4.22 49.81, -4.29 60.45" stroke="#e67700" stroke-width="1" fill="none"></path></g></g><g stroke-linecap="round"><g transform="translate(245.2470569019905 7.458231537820893) rotate(58.47663174358581 1.240507031349864 13.643455651114692)"><path d="M-0.87 0.29 C-0.9 5.02, 0.07 24.39, 0.26 29.31 M3.85 -2.02 C3.51 1.78, -0.58 20.42, -1.37 24.95" stroke="#e67700" stroke-width="1" fill="none"></path></g></g><g stroke-linecap="round"><g transform="translate(223.5712111461247 7.237368505946847) rotate(302.6847942516087 -2.277926813047486 15.656053658948395)"><path d="M0.51 0.25 C0.36 5.5, -2.17 25.21, -2.59 30.55 M-2.65 -2.08 C-3.07 3.61, -4.88 27.12, -5.07 33.39" stroke="#e67700" stroke-width="1" fill="none"></path></g></g><g stroke-linecap="round"><g transform="translate(14.298037216305431 18.78526217620987) rotate(358.2800168678543 -1.6184661265462807 32.220031196326005)"><path d="M0.11 0.27 C-0.53 11.04, -4 53.05, -4.32 63.17 M-3.27 -2.05 C-2.97 9.28, 1.09 55.71, 1.09 66.49" stroke="#e67700" stroke-width="1" fill="none"></path></g></g><g stroke-linecap="round"><g transform="translate(120.75425536917533 25.000225041556575) rotate(358.2800168678543 -2.7128720605081753 31.294037187099462)"><path d="M0.27 -1.82 C0 8.89, -2.16 53.44, -3.08 64.41 M-3.03 3.36 C-3.59 13.17, -6.15 49.12, -5.63 59.76" stroke="#e67700" stroke-width="1" fill="none"></path></g></g><g stroke-linecap="round"><g transform="translate(42.02318628724663 69.82150511172318) rotate(302.6847942516087 -0.6676092140376682 29.900629188269363)"><path d="M-1.82 -0.58 C-2.15 9.55, -1.76 50.37, -1.84 61.01 M2.38 -3.36 C1.73 6.98, -2.66 51.58, -3.72 63.16" stroke="#e67700" stroke-width="1" fill="none"></path></g></g><g stroke-linecap="round"><g transform="translate(94.67185271817675 70.7370466107364) rotate(58.47663174358581 -0.464699666127558 33.14483686611055)"><path d="M-0.58 0.66 C-1.49 11.63, -4.83 53.39, -5.24 63.98 M4.31 -1.45 C4.18 10.19, 1.24 56.23, -0.32 67.74" stroke="#e67700" stroke-width="1" fill="none"></path></g></g><g stroke-linecap="round"><g transform="translate(115.43803971512375 8.773164215604822) rotate(302.6847942516087 -0.9594757220717156 9.419141612428405)"><path d="M-2.74 0.23 C-2.7 3.61, -1.26 17.25, -0.39 20.95 M0.98 -2.11 C0.64 0.3, -3.05 12.86, -2.89 16.2" stroke="#e67700" stroke-width="1" fill="none"></path></g></g><g stroke-linecap="round"><g transform="translate(132.9786838553805 4.22119968989756) rotate(58.47663174358581 1.6558140559844219 14.124592717361992)"><path d="M2.37 1.94 C2.93 5.94, 3.39 20.46, 2.88 24.5 M0.21 0.52 C0.52 4.89, 0.36 24.3, 1.11 27.73" stroke="#e67700" stroke-width="1" fill="none"></path></g></g><g stroke-linecap="round"><g transform="translate(149.5889151311237 78.2344882814898) rotate(302.6847942516087 -1.6257825251668692 31.950638830661774)"><path d="M0.9 -1.5 C0.3 9.85, -4.05 54.98, -4.33 65.4 M-2.05 3.86 C-1.68 14.64, 1 51.49, 1.08 61.28" stroke="#e67700" stroke-width="1" fill="none"></path></g></g><g stroke-linecap="round"><g transform="translate(202.13599940880113 79.09846718548778) rotate(58.47663174358581 0.3454333217441672 31.83699487447737)"><path d="M-1.5 -1.83 C-1.19 8.94, -0.23 54.63, -0.85 65.5 M2.88 3.35 C3.21 13.23, -1.73 50.94, -2.19 61.45" stroke="#e67700" stroke-width="1" fill="none"></path></g></g><g stroke-linecap="round"><g transform="translate(172.3217023258843 127.58451861961942) rotate(358.2800168678543 -1.9671255771815481 31.66626386806368)"><path d="M-2.74 -0.32 C-3.45 9.89, -2.74 52.02, -2.61 63.05 M0.97 -2.97 C-0.27 7.51, -4.17 55.56, -4.9 66.3" stroke="#e67700" stroke-width="1" fill="none"></path></g></g><g stroke-linecap="round"><g transform="translate(93.60928178346126 172.50195301728786) rotate(302.6847942516087 -3.1340227214520837 30.84594896398488)"><path d="M-0.32 -0.11 C-1.15 11.07, -3.19 54.08, -3.2 64.32 M-3.94 -2.63 C-5.36 7.89, -6.3 48.66, -5.82 59.63" stroke="#e67700" stroke-width="1" fill="none"></path></g></g><g stroke-linecap="round"><g transform="translate(146.16954422599065 173.39387444669) rotate(58.47663174358581 -2.100142610034368 31.15728951774537)"><path d="M-0.11 -0.7 C0.03 10.33, -1.12 54.96, -1.93 65.86 M-3.61 -3.55 C-3.55 6.74, -4.56 51.46, -3.85 62" stroke="#e67700" stroke-width="1" fill="none"></path></g></g><g stroke-linecap="round"><g transform="translate(63.394608685813864 122.10868286419719) rotate(358.2800168678543 -2.188778866976463 32.88031217738987)"><path d="M-2.41 0.96 C-3.05 11.16, -3.02 53.09, -3.22 63.34 M1.47 -0.99 C0.35 9.47, -4.59 55.77, -5.85 66.75" stroke="#e67700" stroke-width="1" fill="none"></path></g></g><g stroke-linecap="round"><g transform="translate(283.6245667553768 132.6621329298539) rotate(358.2800168678543 -2.4774621196463613 31.623530018702183)"><path d="M0.35 -2.32 C-0.04 8.48, -2.22 54.37, -2.87 65.57 M-2.9 2.59 C-3.65 12.52, -4.8 51.99, -5.31 61.54" stroke="#e67700" stroke-width="1" fill="none"></path></g></g><g stroke-linecap="round"><g transform="translate(202.48535640199827 178.27199747061786) rotate(302.6847942516087 -3.427016892795848 32.5830820049718)"><path d="M-0.37 1.82 C-1.02 13.01, -2.74 54.61, -3.55 64.83 M-4.01 0.33 C-5.16 10.88, -7.04 49.48, -6.35 60.41" stroke="#e67700" stroke-width="1" fill="none"></path></g></g><g stroke-linecap="round"><g transform="translate(254.94411186075683 179.1123781979261) rotate(58.47663174358581 -0.6255973055585855 29.539063822925073)"><path d="M1.82 -1.05 C1.97 9.18, -0.6 50.47, -1.42 61.02 M-0.64 -4.08 C-0.56 6.42, -2.3 51.74, -3.07 63.16" stroke="#e67700" stroke-width="1" fill="none"></path></g></g><g stroke-linecap="round"><g transform="translate(449.9887626820822 37.38868763687691) rotate(358.2800168678543 -1.648429119214427 31.2032568940148)"><path d="M1.72 -0.24 C1.15 10.26, -4.05 54.99, -5.02 65.25 M-0.79 -2.84 C-0.37 6.64, 1.02 50.06, 0.01 61.05" stroke="#e67700" stroke-width="1" fill="none"></path></g></g><g stroke-linecap="round"><g transform="translate(458.4078723287263 99.21835854921625) rotate(302.6847942516087 -1.7819383419349606 8.22065172462473)"><path d="M-2.52 1.5 C-3.62 3.92, -4.71 11.34, -4.87 14.28 M1.31 -0.16 C0.97 2.55, 1.78 14.07, 0.65 16.6" stroke="#e67700" stroke-width="1" fill="none"></path></g></g><g stroke-linecap="round"><g transform="translate(459.0439127879812 25.003801306893877) rotate(58.47663174358581 -1.7051485104358903 7.8231032595640215)"><path d="M-1.62 -2.42 C-1.82 0.34, -3.19 15.36, -3.74 18.07 M2.7 2.44 C2.33 4.33, -4.4 12.15, -6.11 14.4" stroke="#e67700" stroke-width="1" fill="none"></path></g></g><g stroke-linecap="round"><g transform="translate(392.54745815838544 133.94240951687107) rotate(358.2800168678543 -0.9037966672331095 31.588132065720856)"><path d="M2.47 -1.46 C2.16 8.91, -3.12 51.12, -4.28 61.97 M0.37 3.92 C1.19 14.63, 1 54.18, 1.15 64.64" stroke="#e67700" stroke-width="1" fill="none"></path></g></g><g stroke-linecap="round"><g transform="translate(418.9184090069043 184.3782690607012) rotate(302.6847942516087 -0.6447887445959282 31.271385321281798)"><path d="M-1.46 -1.78 C-2.13 8.1, -4.08 50.74, -4.28 61.77 M2.94 3.42 C3.2 14.82, 2.4 53.58, 1.16 64.32" stroke="#e67700" stroke-width="1" fill="none"></path></g></g><g stroke-linecap="round"><g transform="translate(452.7656115637526 219.68334087296194) rotate(58.47663174358581 0.1817388983758974 9.641065535624875)"><path d="M-1.78 -1.78 C-2.61 1.38, -2.82 14, -2.5 17.5 M2.45 3.43 C2.28 7.19, 3.45 19.22, 2.83 21.06" stroke="#e67700" stroke-width="1" fill="none"></path></g></g><g stroke-linecap="round"><g transform="translate(422.4606035597616 85.93286131332604) rotate(58.47663174358581 -1.2342577478289627 31.22279713712632)"><path d="M-1.78 -1.98 C-1.97 9.05, -2.76 53.77, -2.62 64.43 M2.45 3.12 C2.01 13.42, -4.19 49.63, -4.92 59.78" stroke="#e67700" stroke-width="1" fill="none"></path></g></g><g stroke-linecap="round"><g transform="translate(431.5637568046584 2.903482686525649) rotate(302.6847942516087 -0.145500608098871 23.6415676300293)"><path d="M-1.98 -0.12 C-1.78 8.5, -0.38 41.78, -0.56 49.93 M2.14 -2.65 C2.19 5.31, -2.54 36.64, -2.43 45.76" stroke="#e67700" stroke-width="1" fill="none"></path></g></g><g stroke-linecap="round"><g transform="translate(372.28691007814564 85.79636424237515) rotate(302.6847942516087 -1.6122453542426456 33.960292700529095)"><path d="M0.68 1.55 C0.29 12.26, -3.35 54.16, -4.32 64.15 M-2.4 -0.08 C-1.71 11.16, 0.66 57.42, 1.09 68" stroke="#e67700" stroke-width="1" fill="none"></path></g></g><g stroke-linecap="round"><g transform="translate(311.73360417519075 184.6957052102092) rotate(302.6847942516087 -1.8589252396300253 33.127527440786366)"><path d="M2.55 1.76 C1.71 11.81, -2.83 52.24, -3.49 62.86 M0.48 0.24 C-0.95 11.9, -5.74 55.91, -6.26 66.01" stroke="#e67700" stroke-width="1" fill="none"></path></g></g><g stroke-linecap="round"><g transform="translate(364.8567345657061 187.16230088877455) rotate(58.47663174358581 -2.1739125337824134 30.40786862459032)"><path d="M1.76 -0.99 C0.77 9.39, -2.96 53.81, -3.39 64.81 M-0.73 -3.99 C-2.41 6.73, -5.95 49.67, -6.1 60.38" stroke="#e67700" stroke-width="1" fill="none"></path></g></g><g stroke-linecap="round"><g transform="translate(451.3649110883342 238.4990147099619) rotate(358.2800168678543 -2.127019218467126 33.47317733019594)"><path d="M1.16 1.43 C0.5 12.19, -2.63 52.86, -2.94 63.64 M-1.66 -0.27 C-2.82 11.05, -5.44 56.85, -5.41 67.21" stroke="#e67700" stroke-width="1" fill="none"></path></g></g><g stroke-linecap="round"><g transform="translate(341.0028432897774 233.37148638343604) rotate(358.2800168678543 -1.7383649810030875 31.222638048119848)"><path d="M1.43 -0.44 C1.15 10.3, -2.35 54.88, -2.61 65.59 M-1.24 -3.14 C-1.82 6.7, -5.01 49.9, -4.9 61.58" stroke="#e67700" stroke-width="1" fill="none"></path></g></g><g stroke-linecap="round"><g transform="translate(367.3737941382959 283.80734592726606) rotate(302.6847942516087 -2.321451654237194 31.756069798134263)"><path d="M-0.44 -0.11 C-0.74 10.68, -0.33 55.81, -0.66 66.15 M-4.12 -2.63 C-4.73 7.28, -1.88 51.33, -1.9 62.43" stroke="#e67700" stroke-width="1" fill="none"></path></g></g><g stroke-linecap="round"><g transform="translate(422.3910643210278 284.82611684841424) rotate(58.47663174358581 -1.7665311160615147 33.90631811499594)"><path d="M-0.11 1.84 C-0.36 12.54, 0.6 53.93, -0.1 63.79 M-3.61 0.37 C-4.15 11.6, -1.89 57.06, -1.04 67.45" stroke="#e67700" stroke-width="1" fill="none"></path></g></g><g stroke-linecap="round"><g transform="translate(456.14172070190045 296.9835128429993) rotate(302.6847942516087 -1.987571960678622 8.276686057268137)"><path d="M-2.43 -0.4 C-3.74 2.26, -5.35 13.75, -5.42 17.49 M1.44 -3.08 C0.75 -0.32, 0.61 16.2, -0.39 19.64" stroke="#e67700" stroke-width="1" fill="none"></path></g></g><g stroke-linecap="round"><g transform="translate(257.0855664000163 280.20872131434476) rotate(302.6847942516087 -0.132892664261135 33.264695333428676)"><path d="M1.93 2.63 C1.87 13.1, -0.14 54.79, -0.85 64.94 M-0.47 1.59 C-0.7 11.02, -1.59 49.75, -2.19 60.58" stroke="#e67700" stroke-width="1" fill="none"></path></g></g><g stroke-linecap="round"><g transform="translate(309.64582884254594 281.10064274374713) rotate(58.47663174358581 -0.13546690251678228 33.835803277194486)"><path d="M2.63 1.65 C2.06 11.98, -0.42 53.34, -1.31 63.89 M0.61 0.08 C-0.42 10.72, -2.03 57.6, -2.9 67.59" stroke="#e67700" stroke-width="1" fill="none"></path></g></g><g stroke-linecap="round"><g transform="translate(226.87089330236893 229.81545116125426) rotate(358.2800168678543 -1.436521739549903 33.21328337073328)"><path d="M1.65 1.19 C0.94 11.34, -1.87 52.84, -2.36 63.54 M-0.9 -0.63 C-2.15 11.19, -4.26 56.82, -4.52 67.06" stroke="#e67700" stroke-width="1" fill="none"></path></g></g><g stroke-linecap="round"><g transform="translate(396.5366910886129 338.4811695161882) rotate(358.2800168678543 -0.9998662371000364 32.310921907089664)"><path d="M1.79 1.52 C1.42 12.63, -0.86 54.77, -1.87 64.74 M-0.68 -0.12 C-1.4 10.3, -4.14 49.72, -3.77 60.26" stroke="#e67700" stroke-width="1" fill="none"></path></g></g><g stroke-linecap="round"><g transform="translate(425.95926980498564 388.20872131434476) rotate(302.6847942516087 -2.589749837704005 32.132242346182466)"><path d="M-0.11 -2.08 C-0.74 8.75, -2.13 55.73, -2.71 66.34 M-3.61 2.97 C-4.73 12.95, -4.67 52.64, -5.07 62.74" stroke="#e67700" stroke-width="1" fill="none"></path></g></g><g stroke-linecap="round"><g transform="translate(459.1418106750716 425.43334399977414) rotate(58.47663174358581 -0.0647043548345323 7.8556121785643995)"><path d="M-2.08 -0.21 C-2.45 2.38, -0.28 13.14, -0.87 15.48 M1.99 -2.8 C1.35 0.19, -1.37 15.48, -1.7 18.51" stroke="#e67700" stroke-width="1" fill="none"></path></g></g></svg>