<svg version="1.1" xmlns="http://www.w3.org/2000/svg" viewBox="0 0 532.4210834997996 392.0011846698119" width="1597.2632504993987" height="1176.0035540094357">
  <!-- svg-source:excalidraw -->
  
  <defs>
    <style>
      @font-face {
        font-family: "Virgil";
        src: url("https://excalidraw.com/Virgil.woff2");
      }
      @font-face {
        font-family: "Cascadia";
        src: url("https://excalidraw.com/Cascadia.woff2");
      }
    </style>
  </defs>
  <g stroke-linecap="round"><g transform="translate(352.45512922273093 97.4593605215031) rotate(0 -0.9010929448407978 31.347273170202982)"><path d="M-2.67 -0.93 C-3.38 9.47, -3.89 52.12, -3.88 63.24 M1.07 -3.9 C1.28 6.86, 2.7 55.71, 1.77 66.59" stroke="#e67700" stroke-width="1" fill="none"></path></g></g><g stroke-linecap="round"><g transform="translate(458.70512922273093 106.8343605215031) rotate(0 -0.8795038120448453 32.905018487796184)"><path d="M-0.93 -1.38 C-1.57 9.67, -3.09 52.43, -3.01 63.63 M3.77 4.04 C2.63 15.81, -4.71 57.63, -5.52 67.19" stroke="#e67700" stroke-width="1" fill="none"></path></g></g><g stroke-linecap="round"><g transform="translate(378.70512922273093 149.33436052150304) rotate(304.4047773837545 -0.9302881996333667 31.272323857173348)"><path d="M-1.38 -0.51 C-1.37 10.61, -2.78 54.63, -2.62 65.8 M3.07 -3.25 C2.93 7.18, -4.23 50.95, -4.93 61.9" stroke="#e67700" stroke-width="1" fill="none"></path></g></g><g stroke-linecap="round"><g transform="translate(431.20512922273093 151.83436052150304) rotate(60.19661487573155 -2.3407827731221573 31.579758618697525)"><path d="M-0.51 -0.12 C-0.43 11.08, -0.58 55.59, -0.45 65.82 M-4.23 -2.66 C-4.26 7.9, -2.27 50.99, -1.58 61.93" stroke="#e67700" stroke-width="1" fill="none"></path></g></g><g stroke-linecap="round"><g transform="translate(383.70512922273093 49.3343605215031) rotate(60.19661487573155 -1.7741634603589773 33.60313215337693)"><path d="M-0.12 2.05 C0.03 13.22, 0.38 55.88, -0.43 66.51 M-3.63 0.69 C-3.54 11.2, -2.23 52.87, -1.55 63" stroke="#e67700" stroke-width="1" fill="none"></path></g></g><g stroke-linecap="round"><g transform="translate(438.70512922273093 55.5843605215031) rotate(304.4047773837545 0.7867251876741648 32.12365217372776)"><path d="M2.05 2.07 C2.18 12.3, 0.67 50.87, 0.26 61.25 M-0.28 0.72 C-0.23 11.22, -0.35 52.34, -0.48 63.53" stroke="#e67700" stroke-width="1" fill="none"></path></g></g><g stroke-linecap="round"><g transform="translate(411.47663052261913 10.11096761981159) rotate(0 -0.49901803135873024 31.42560828328132)"><path d="M2.07 2.76 C1.58 12.6, -2.73 51.33, -3.07 61.06 M-0.25 1.79 C0.11 10.68, 2.17 48.02, 1.98 57.19" stroke="#e67700" stroke-width="1" fill="none"></path></g></g><g stroke-linecap="round"><g transform="translate(519.6587810415133 14.69244049424438) rotate(0 0.633085241690253 30.93842424154282)"><path d="M2.76 -2.5 C2.35 7.89, 0.11 53.26, -0.4 64.37 M0.82 2.32 C0.04 11.61, -1.21 48.84, -1.5 59.7" stroke="#e67700" stroke-width="1" fill="none"></path></g></g><g stroke-linecap="round"><g transform="translate(492.15878104151335 59.69244049424438) rotate(60.19661487573155 0.3802204421907618 33.261421033591034)"><path d="M2.1 0.62 C1.59 11.74, 0.73 53.25, -0.3 64.17 M-0.2 -1.5 C-1.14 10.35, -0.26 57.45, -1.34 68.03" stroke="#e67700" stroke-width="1" fill="none"></path></g></g><g stroke-linecap="round"><g transform="translate(292.15878104151335 192.81744049424438) rotate(0 -1.1675815745443288 31.509849035739876)"><path d="M1.69 -1.65 C1.49 9.01, -1.19 53.72, -2.04 64.67 M-0.84 3.62 C-1.29 13.35, -3.22 49.55, -4.02 60.16" stroke="#e67700" stroke-width="1" fill="none"></path></g></g><g stroke-linecap="round"><g transform="translate(323.40878104151335 144.69244049424432) rotate(60.19661487573155 0.41123722150922504 31.472590008601543)"><path d="M-0.87 0.29 C-1.18 10.96, -1.31 54.1, -1.39 64.96 M3.85 -2.02 C3.23 7.72, -1.97 50.13, -3.03 60.61" stroke="#e67700" stroke-width="1" fill="none"></path></g></g><g stroke-linecap="round"><g transform="translate(304.76439755142775 15.473006804381953) rotate(0 -0.9843216761201461 24.23295767903329)"><path d="M1.11 1.21 C1.01 9.34, -0.73 41.13, -1.46 49.06 M-1.74 -0.59 C-2.03 6.71, -2.46 37.53, -3.07 44.98" stroke="#e67700" stroke-width="1" fill="none"></path></g></g><g stroke-linecap="round"><g transform="translate(330.90878104151335 50.94244049424444) rotate(304.4047773837545 -2.3267516428559816 32.70486211858692)"><path d="M1.15 1.72 C0.44 12.39, -2.27 55.05, -3.15 65.23 M-1.68 0.18 C-2.92 9.91, -6.32 50.15, -5.74 61.02" stroke="#e67700" stroke-width="1" fill="none"></path></g></g><g stroke-linecap="round"><g transform="translate(245.90878104151335 92.81744049424438) rotate(0 -0.6481469337642238 31.924360267370957)"><path d="M-1.65 -0.94 C-1.87 9.48, -1.77 53.46, -1.99 64 M2.65 -3.92 C2.16 6.87, -2.67 56.35, -3.94 67.77" stroke="#e67700" stroke-width="1" fill="none"></path></g></g><g stroke-linecap="round"><g transform="translate(272.15878104151335 144.69244049424432) rotate(304.4047773837545 -2.4563188716024342 31.53174048587681)"><path d="M0.51 0.25 C0.3 10.79, -2.46 51.67, -2.95 62.3 M-2.65 -2.08 C-3.13 8.9, -5.18 53.58, -5.43 65.14" stroke="#e67700" stroke-width="1" fill="none"></path></g></g><g stroke-linecap="round"><g transform="translate(277.15878104151335 44.69244049424438) rotate(60.19661487573155 -2.761326275586498 33.1728489240259)"><path d="M-0.45 -1.45 C-0.93 9.18, -1.74 53.25, -2.39 64.02 M-4.13 3.93 C-5.03 15.04, -5.51 57.46, -4.56 67.8" stroke="#e67700" stroke-width="1" fill="none"></path></g></g><g stroke-linecap="round"><g transform="translate(74.95512922273048 174.9593605215032) rotate(0 -1.6184661265462523 32.220031196326005)"><path d="M0.11 0.27 C-0.53 11.04, -4 53.05, -4.32 63.17 M-3.27 -2.05 C-2.97 9.28, 1.09 55.71, 1.09 66.49" stroke="#e67700" stroke-width="1" fill="none"></path></g></g><g stroke-linecap="round"><g transform="translate(181.20512922273048 184.3343605215032) rotate(0 -2.7128720605081753 31.294037187099462)"><path d="M0.27 -1.82 C0 8.89, -2.16 53.44, -3.08 64.41 M-3.03 3.36 C-3.59 13.17, -6.15 49.12, -5.63 59.76" stroke="#e67700" stroke-width="1" fill="none"></path></g></g><g stroke-linecap="round"><g transform="translate(101.20512922273048 226.8343605215032) rotate(304.4047773837545 -0.6676092140376682 29.90062918826939)"><path d="M-1.82 -0.58 C-2.15 9.55, -1.76 50.37, -1.84 61.01 M2.38 -3.36 C1.73 6.98, -2.66 51.58, -3.72 63.16" stroke="#e67700" stroke-width="1" fill="none"></path></g></g><g stroke-linecap="round"><g transform="translate(153.70512922273048 229.3343605215032) rotate(60.19661487573155 -0.464699666127558 33.14483686611058)"><path d="M-0.58 0.66 C-1.49 11.63, -4.83 53.39, -5.24 63.98 M4.31 -1.45 C4.18 10.19, 1.24 56.23, -0.32 67.74" stroke="#e67700" stroke-width="1" fill="none"></path></g></g><g stroke-linecap="round"><g transform="translate(106.20512922273048 126.83436052150321) rotate(60.19661487573155 -1.8594641657919055 31.950253060683593)"><path d="M0.66 -2.74 C0.59 7.91, -1.82 51.79, -2.27 63.27 M-2.42 1.95 C-2.68 13.08, -4.19 56.65, -4.38 66.64" stroke="#e67700" stroke-width="1" fill="none"></path></g></g><g stroke-linecap="round"><g transform="translate(161.20512922273048 133.0843605215032) rotate(304.4047773837545 -2.2531230442226047 31.05815041862428)"><path d="M-2.74 0.23 C-3.14 10.83, -3.42 53.32, -2.98 64.23 M0.98 -2.11 C0.21 7.51, -5.21 48.92, -5.48 59.48" stroke="#e67700" stroke-width="1" fill="none"></path></g></g><g stroke-linecap="round"><g transform="translate(135.9087810415129 82.8174404942445) rotate(0 -1.9339862251752606 31.453706417903334)"><path d="M0.23 -0.48 C-0.22 10.99, -1.89 55.27, -2.02 66.12 M-3.09 -3.21 C-3.92 7.77, -4.3 51.93, -4 62.39" stroke="#e67700" stroke-width="1" fill="none"></path></g></g><g stroke-linecap="round"><g transform="translate(214.6587810415129 137.1924404942445) rotate(60.19661487573155 -0.5162330719083457 33.38962736293675)"><path d="M2.37 1.94 C2.18 12.36, -0.38 52.57, -1.63 63.03 M0.21 0.52 C-0.23 11.32, -3.4 56.41, -3.4 66.26" stroke="#e67700" stroke-width="1" fill="none"></path></g></g><g stroke-linecap="round"><g transform="translate(167.1587810415129 34.692440494244266) rotate(60.19661487573155 -1.9602844401448465 31.055726234167807)"><path d="M1.94 0.87 C1.32 10.65, -2.64 50.84, -3.22 61.07 M-0.46 -1.13 C-1.56 10.12, -5.45 52.3, -5.86 63.24" stroke="#e67700" stroke-width="1" fill="none"></path></g></g><g stroke-linecap="round"><g transform="translate(222.1587810415129 40.94244049424455) rotate(304.4047773837545 -2.1572675108909607 30.534100163802506)"><path d="M0.87 -0.72 C-0.39 9.73, -4.37 54.21, -5.18 64.65 M-2.11 -3.59 C-2.76 5.82, 0.52 48.86, -0.23 60.14" stroke="#e67700" stroke-width="1" fill="none"></path></g></g><g stroke-linecap="round"><g transform="translate(208.4087810415129 238.4424404942445) rotate(304.4047773837545 -1.6257825251668692 31.950638830661802)"><path d="M0.9 -1.5 C0.3 9.85, -4.05 54.98, -4.33 65.4 M-2.05 3.86 C-1.68 14.64, 1 51.49, 1.08 61.28" stroke="#e67700" stroke-width="1" fill="none"></path></g></g><g stroke-linecap="round"><g transform="translate(260.9087810415129 240.9424404942445) rotate(60.19661487573155 0.3454333217441672 31.83699487447737)"><path d="M-1.5 -1.83 C-1.19 8.94, -0.23 54.63, -0.85 65.5 M2.88 3.35 C3.21 13.23, -1.73 50.94, -2.19 61.45" stroke="#e67700" stroke-width="1" fill="none"></path></g></g><g stroke-linecap="round"><g transform="translate(229.6587810415129 288.44244049424447) rotate(0 -1.9671255771815481 31.66626386806371)"><path d="M-2.74 -0.32 C-3.45 9.89, -2.74 52.02, -2.61 63.05 M0.97 -2.97 C-0.27 7.51, -4.17 55.56, -4.9 66.3" stroke="#e67700" stroke-width="1" fill="none"></path></g></g><g stroke-linecap="round"><g transform="translate(149.6587810415129 330.9424404942441) rotate(304.4047773837545 -3.1340227214520837 30.84594896398488)"><path d="M-0.32 -0.11 C-1.15 11.07, -3.19 54.08, -3.2 64.32 M-3.94 -2.63 C-5.36 7.89, -6.3 48.66, -5.82 59.63" stroke="#e67700" stroke-width="1" fill="none"></path></g></g><g stroke-linecap="round"><g transform="translate(202.1587810415129 333.4424404942441) rotate(60.19661487573155 -2.100142610034368 31.15728951774537)"><path d="M-0.11 -0.7 C0.03 10.33, -1.12 54.96, -1.93 65.86 M-3.61 -3.55 C-3.55 6.74, -4.56 51.46, -3.85 62" stroke="#e67700" stroke-width="1" fill="none"></path></g></g><g stroke-linecap="round"><g transform="translate(14.658781041512896 270.31744049424447) rotate(0 -0.5745954676717417 31.927180016860376)"><path d="M2.11 -2.41 C1.97 8, -0.71 52.19, -1.54 63.03 M-0.18 2.45 C-0.55 13.22, -2.47 55.82, -3.26 66.27" stroke="#e67700" stroke-width="1" fill="none"></path></g></g><g stroke-linecap="round"><g transform="translate(120.9087810415129 279.69244049424447) rotate(0 -2.188778866976463 32.88031217738987)"><path d="M-2.41 0.96 C-3.05 11.16, -3.02 53.09, -3.22 63.34 M1.47 -0.99 C0.35 9.47, -4.59 55.77, -5.85 66.75" stroke="#e67700" stroke-width="1" fill="none"></path></g></g><g stroke-linecap="round"><g transform="translate(40.908781041512896 322.1924404942441) rotate(304.4047773837545 -2.2036355753987777 31.02240470096467)"><path d="M0.96 -0.72 C0.12 10.12, -2.12 51.93, -2.91 62.61 M-1.97 -3.58 C-3.41 7.86, -4.65 53.99, -5.36 65.62" stroke="#e67700" stroke-width="1" fill="none"></path></g></g><g stroke-linecap="round"><g transform="translate(93.4087810415129 324.6924404942441) rotate(60.19661487573155 -1.204372281283156 31.17061018154027)"><path d="M-0.72 -0.41 C-0.92 9.85, -3.28 51.99, -3.64 62.49 M4.08 -3.09 C3.62 7.44, -4.99 54.08, -6.49 65.43" stroke="#e67700" stroke-width="1" fill="none"></path></g></g><g stroke-linecap="round"><g transform="translate(45.908781041512896 222.1924404942445) rotate(60.19661487573155 -3.5439391108602365 31.277363044470547)"><path d="M-0.41 -1.14 C-1.19 9.54, -3.22 52.4, -3.76 63.36 M-4.07 -4.22 C-5.43 6.97, -6.34 56.15, -6.68 66.78" stroke="#e67700" stroke-width="1" fill="none"></path></g></g><g stroke-linecap="round"><g transform="translate(27.158781041512896 76.56744049424455) rotate(0 -1.6419674293696858 30.768115445002906)"><path d="M-1.26 -0.39 C-1.8 10.57, -3 53.78, -3.66 64.61 M3.25 -3.07 C2.27 7.11, -6.01 49.64, -6.53 60.06" stroke="#e67700" stroke-width="1" fill="none"></path></g></g><g stroke-linecap="round"><g transform="translate(53.408781041512896 128.44244049424455) rotate(304.4047773837545 -0.9176118894666274 31.70148355565965)"><path d="M-1.16 0.86 C-1.83 11.68, -5.4 54.18, -5.23 64.55 M3.4 -1.15 C3.67 8.83, 0.36 48.82, -0.32 59.97" stroke="#e67700" stroke-width="1" fill="none"></path></g></g><g stroke-linecap="round"><g transform="translate(58.408781041512896 28.442440494244096) rotate(60.19661487573155 -0.8783869596570639 32.53398612186314)"><path d="M-2.73 0.8 C-2.56 11.17, -0.61 52.45, -0.15 63.05 M0.98 -1.23 C1.09 9.47, -0.88 54.78, -1.11 66.3" stroke="#e67700" stroke-width="1" fill="none"></path></g></g><g stroke-linecap="round"><g transform="translate(113.4087810415129 34.692440494244266) rotate(304.4047773837545 -2.507689332589507 33.73036252342165)"><path d="M0.8 2.35 C0.12 13.86, -2.76 56.52, -3.2 66.3 M-2.21 1.16 C-3.4 12.19, -5.64 52.43, -5.82 62.67" stroke="#e67700" stroke-width="1" fill="none"></path></g></g><g stroke-linecap="round"><g transform="translate(21.568256418780493 135.66669914649142) rotate(59.585436978825804 -1.374560669533622 5.212514788557684)"><path d="M-2.74 -0.27 C-3.38 1.84, -1.59 11.14, -1.27 13.31 M0.97 -2.88 C-0.31 -1.68, -3.13 5.82, -3.72 9" stroke="#e67700" stroke-width="1" fill="none"></path></g></g><g stroke-linecap="round"><g transform="translate(195.9395481513538 15.784609362997088) rotate(0 -0.2612580736631003 16.254200970754027)"><path d="M1.61 -0.54 C1.86 4.68, 0.46 26.89, 0.82 33.19 M-0.96 -3.3 C-1.12 2.07, -2.66 29.77, -2 35.81" stroke="#e67700" stroke-width="1" fill="none"></path></g></g><g stroke-linecap="round"><g transform="translate(84.8760648132963 11.262932527065288) rotate(0 -1.8166488698869898 16.469875556230534)"><path d="M0.87 -1.26 C-0.33 4.28, -4.36 28.26, -4.63 34.2 M-2.1 4.22 C-2.6 8.82, 0.85 25.61, 1 29.84" stroke="#e67700" stroke-width="1" fill="none"></path></g></g><g stroke-linecap="round"><g transform="translate(18.924275563049548 68.46289861880214) rotate(304.4047773837545 1.9067220137081335 7.280013677319175)"><path d="M-0.88 1.49 C-0.47 3.82, 3.77 9.53, 4.69 11.35 M3.84 -0.16 C3.63 2.84, 2.41 12.05, 2.2 14.72" stroke="#e67700" stroke-width="1" fill="none"></path></g></g></svg>